<svg width="256" height="256" viewBox="0 0 256 256" fill="none" xmlns="http://www.w3.org/2000/svg">
<path d="M128 44.8571L205.143 86.4286L128 128L50.8572 86.4286L128 44.8571Z" fill="#B4BEFE"/>
<path fill-rule="evenodd" clip-rule="evenodd" d="M239.429 179.249C239.422 182.319 238.591 185.331 237.023 187.97C238.591 185.325 239.419 182.306 239.421 179.231V169.597V169.592H239.429V179.249Z" fill="#B4BEFE"/>
<path d="M230.514 61.7255L136.229 10.1227C133.709 8.73034 130.878 8 128 8C125.122 8 122.291 8.73034 119.772 10.1227L25.4858 61.7469C22.7932 63.2206 20.5455 65.3903 18.9774 68.0295C17.4094 70.6688 16.5785 73.6807 16.5715 76.7508V179.249C16.5785 182.319 17.4094 185.331 18.9774 187.97C20.5455 190.61 22.7932 192.779 25.4858 194.253L119.772 245.877C122.291 247.27 125.122 248 128 248C130.878 248 133.709 247.27 136.229 245.877L230.514 194.253C233.207 192.779 235.455 190.61 237.023 187.97C238.591 185.325 239.419 182.306 239.421 179.231V169.597L128 230.895L33.7144 179.26V76.7616L128 25.1266L222.286 76.7508V95.6429L239.429 86.4288V76.7616C239.427 73.686 238.599 70.6673 237.031 68.0219C235.463 65.3765 233.212 63.2018 230.514 61.7255Z" fill="#B4BEFE"/>
</svg>
